<svg version="1.2" xmlns="http://www.w3.org/2000/svg" viewBox="0 0 340 340" width="340" height="340"><style>.a{fill:#dbdbdb}.b{fill:#fff}</style><path class="a" d="m170 340c-94 0-170-76-170-170 0-94 76-170 170-170 94 0 170 76 170 170 0 94-76 170-170 170z"/><path class="b" d="m58 287c0 0 43.1 46 113 46 66.5 0 110-45 110-45 0 0-19.3-36-59-36-6.4 0-100.5 0-106 0-37.2 0-58 35-58 35z"/><path class="b" d="m170 233c-41.5 0-75-33.5-75-75 0-41.5 33.5-75 75-75 41.5 0 75 33.5 75 75 0 41.5-33.5 75-75 75z"/></svg>